<?xml version="1.0" standalone="no"?>
<svg xmlns="http://www.w3.org/2000/svg" viewBox="0 0 152.952 29" width="152.952" height="29"><g fill="#ff0005" color="#ff0005" transform="translate(0, 0) scale(0.6041667)"><svg width="48.0" height="48.000001" x="0.0" y="0.0" viewBox="0 0 48 48.000001"><g transform="translate(0,-1004.3622)"><g transform="translate(-2.7640848e-5,-3.9608678)"><g transform="translate(-193.99997,107.96089)"><g transform="translate(244.50034,-99.51437)"><g transform="matrix(0.91141401,0,0,0.91115977,-166.65538,-67.310652)"><g transform="translate(130,170)"><g transform="matrix(1.0971962,0,0,1.0975024,290.39629,-279.94234)"><path style="" d="M 24 0 A 24 24.000001 0 0 0 0 24 A 24 24.000001 0 0 0 24 48 A 24 24.000001 0 0 0 48 24 A 24 24.000001 0 0 0 24 0 z M 23.978516 11.001953 A 0.50004998 0.50005004 0 0 1 24.263672 11.074219 L 38.757812 20.070312 A 0.50004998 0.50005004 0 0 1 38.494141 20.994141 L 37 20.994141 L 37 36.498047 A 0.50004998 0.50005004 0 0 1 36.5 36.998047 L 33.5 36.998047 A 0.50004998 0.50005004 0 0 1 33 36.498047 L 33 22.994141 L 15 22.994141 L 15 36.498047 A 0.50004998 0.50005004 0 0 1 14.5 36.998047 L 11.5 36.998047 A 0.50004998 0.50005004 0 0 1 11 36.498047 L 11 20.994141 L 9.5058594 20.994141 A 0.50004998 0.50005004 0 0 1 9.2421875 20.070312 L 23.736328 11.074219 A 0.50004998 0.50005004 0 0 1 23.978516 11.001953 z M 24 12.089844 L 11.261719 19.996094 L 11.5 19.996094 A 0.50004998 0.50005004 0 0 1 12 20.496094 L 12 36 L 14 36 L 14 22.496094 A 0.50004998 0.50005004 0 0 1 14.5 21.996094 L 33.5 21.996094 A 0.50004998 0.50005004 0 0 1 34 22.496094 L 34 36 L 36 36 L 36 20.496094 A 0.50004998 0.50005004 0 0 1 36.5 19.996094 L 36.738281 19.996094 L 24 12.089844 z M 20.949219 16 A 0.50004998 0.50005004 0 0 1 21 16 L 27 16 A 0.50004998 0.50005004 0 1 1 27 17 L 21 17 A 0.50064471 0.50064476 0 0 1 20.949219 16 z M 18.949219 18 A 0.50004998 0.50005004 0 0 1 19 18 L 29 18 A 0.50004998 0.50005004 0 1 1 29 19 L 19 19 A 0.50064471 0.50064476 0 0 1 18.949219 18 z M 24.492188 24.994141 L 24.494141 25 A 0.50004998 0.50005004 0 0 1 24.578125 25.009766 L 26.417969 25.009766 A 0.50004998 0.50005004 0 0 1 26.492188 25 A 0.50004998 0.50005004 0 0 1 26.578125 25.009766 L 28.5 25.009766 A 0.50004998 0.50005004 0 0 1 29 25.509766 L 29 30.509766 L 29 35.509766 A 0.50004998 0.50005004 0 0 1 28.5 36.009766 L 22.5 36.009766 A 0.50004998 0.50005004 0 0 1 22 35.509766 L 22 34.970703 L 19.746094 35.943359 A 0.50004995 0.50005001 0 0 1 19.6875 35.970703 A 0.50004995 0.50005001 0 0 1 19.654297 35.984375 A 0.50004995 0.50005001 0 0 1 19.640625 35.984375 A 0.50004995 0.50005001 0 0 1 19.607422 35.994141 A 0.50004995 0.50005001 0 0 1 19.591797 35.994141 A 0.50004995 0.50005001 0 0 1 19.556641 36.003906 A 0.50004995 0.50005001 0 0 0 19.554688 36.003906 A 0.50004995 0.50005001 0 0 1 19.341797 35.982422 A 0.50004995 0.50005001 0 0 1 19.267578 35.951172 A 0.50004995 0.50005001 0 0 1 19.255859 35.941406 L 16.361328 34.691406 A 0.50004995 0.50005001 0 0 1 16.070312 34.462891 A 0.50004995 0.50005001 0 0 1 16.060547 34.447266 A 0.50004995 0.50005001 0 0 1 16.042969 34.408203 A 0.50004995 0.50005001 0 0 1 16.039062 34.396484 A 0.50004995 0.50005001 0 0 1 16.025391 34.357422 A 0.50004995 0.50005001 0 0 1 16.021484 34.347656 A 0.50004995 0.50005001 0 0 1 16.013672 34.318359 A 0.50004995 0.50005001 0 0 1 16.011719 34.302734 A 0.50004995 0.50005001 0 0 1 16.007812 34.289062 A 0.50004995 0.50005001 0 0 1 16.001953 34.160156 L 16.001953 30.460938 A 0.50004995 0.50005001 0 0 1 16.138672 29.972656 A 0.50004995 0.50005001 0 0 1 16.15625 29.957031 A 0.50004995 0.50005001 0 0 1 16.173828 29.939453 A 0.50004995 0.50005001 0 0 1 16.394531 29.828125 L 19.246094 28.599609 A 0.50004995 0.50005001 0 0 1 19.478516 28.533203 A 0.50004995 0.50005001 0 0 1 19.773438 28.607422 L 22 29.568359 L 22 25.503906 A 0.50004998 0.50005004 0 0 1 22.5 25.003906 L 24.417969 25.003906 A 0.50004998 0.50005004 0 0 1 24.492188 24.994141 z M 23 26 L 23 26.017578 L 23 30.017578 L 24.378906 30.017578 A 0.50004998 0.50005004 0 0 1 24.492188 30.001953 A 0.50004998 0.50005004 0 0 1 24.617188 30.017578 L 26.378906 30.017578 A 0.50004998 0.50005004 0 0 1 26.492188 30.001953 A 0.50004998 0.50005004 0 0 1 26.617188 30.017578 L 28 30.017578 L 28 26.017578 L 27 26.017578 L 27 27.507812 A 0.50004998 0.50005004 0 0 1 26.863281 27.855469 A 0.50004998 0.50005004 0 0 1 26.830078 27.886719 A 0.50004998 0.50005004 0 0 1 26.791016 27.917969 A 0.50004998 0.50005004 0 0 0 26.789062 27.917969 A 0.50004998 0.50005004 0 0 1 26.748047 27.943359 A 0.50004998 0.50005004 0 0 0 26.746094 27.943359 A 0.50004998 0.50005004 0 0 1 26.658203 27.982422 A 0.50004998 0.50005004 0 0 1 26.654297 27.982422 A 0.50004998 0.50005004 0 0 1 26.625 27.992188 A 0.50004998 0.50005004 0 0 1 26.609375 27.992188 A 0.50004998 0.50005004 0 0 1 26.556641 28.001953 A 0.50004998 0.50005004 0 0 1 26.269531 27.953125 L 25.492188 27.564453 L 24.753906 27.935547 A 0.50004998 0.50005004 0 0 1 24.746094 27.935547 L 24.716797 27.949219 A 0.50004998 0.50005004 0 0 1 24.701172 27.958984 A 0.50004998 0.50005004 0 0 1 24.693359 27.958984 A 0.50004998 0.50005004 0 0 1 24.607422 27.988281 A 0.50004998 0.50005004 0 0 1 24.599609 27.988281 A 0.50004998 0.50005004 0 0 1 24.585938 27.988281 A 0.50004998 0.50005004 0 0 1 24 27.40625 L 24 26 L 23 26 z M 25 26 L 25 26.685547 L 25.269531 26.550781 A 0.50004998 0.50005004 0 0 1 25.474609 26.498047 A 0.50004998 0.50005004 0 0 1 25.716797 26.550781 L 26 26.691406 L 26 26 L 25 26 z M 19.5 29.576172 L 17.763672 30.324219 L 18.792969 30.767578 L 19.5 31.072266 L 21.234375 30.324219 L 19.5 29.576172 z M 23 31 L 23 34.1875 A 0.50004995 0.50005001 0 0 1 23 34.238281 L 23 35 L 28 35 L 28 31 L 27 31 L 27 32.494141 A 0.50004998 0.50005004 0 0 1 26.515625 33 A 0.50004998 0.50005004 0 0 1 26.511719 33 A 0.50004998 0.50005004 0 0 1 26.507812 33 A 0.50004998 0.50005004 0 0 1 26.408203 32.990234 A 0.50004998 0.50005004 0 0 1 26.363281 32.980469 A 0.50004998 0.50005004 0 0 1 26.269531 32.945312 L 25.492188 32.558594 L 24.767578 32.919922 A 0.50004998 0.50005004 0 0 1 24.501953 32.998047 A 0.50004998 0.50005004 0 0 1 24.449219 32.998047 A 0.50004998 0.50005004 0 0 1 24 32.40625 L 24 31 L 23 31 z M 25 31 L 25 31.6875 L 25.269531 31.552734 A 0.50004998 0.50005004 0 0 1 25.474609 31.501953 A 0.50004998 0.50005004 0 0 1 25.716797 31.552734 L 26 31.695312 L 26 31 L 25 31 z M 17.001953 31.083984 L 17.001953 33.873047 L 19 34.734375 L 19 31.945312 L 18.396484 31.685547 L 17.304688 31.214844 L 17.001953 31.083984 z M 21.998047 31.083984 L 20 31.945312 L 20 34.734375 L 21.998047 33.873047 L 21.998047 31.083984 z " transform="translate(-267.00003,1167.3622)" fill="currentColor" fill-opacity="1" fill-rule="evenodd" stroke="none"></path></g></g></g></g></g></g></g></svg></g><line x1="41" y1="1" x2="41" y2="28" stroke="#000000" stroke-linecap="round"></line><path fill="#000000" fill-rule="nonzero" d="M10.79 2.44Q12.26 3.91 12.26 6.77Q12.26 9.62 10.79 11.10Q9.31 12.58 6.62 12.58L6.62 12.58L3.34 12.58L3.34 18.05L0 18.05L0 0.96L6.62 0.96Q9.31 0.96 10.79 2.44ZM8.93 6.77L8.93 6.77Q8.93 3.94 6.46 3.94L6.46 3.94L3.34 3.94L3.34 9.58L6.46 9.58Q7.66 9.58 8.29 8.93Q8.93 8.28 8.93 6.77ZM22.25 11.86L22.25 11.86L22.25 10.61Q22.25 8.83 21.73 7.90Q21.22 6.96 19.58 6.96L19.58 6.96Q16.94 6.96 16.94 10.51L16.94 10.51L16.94 11.76Q16.94 15.58 19.58 15.58L19.58 15.58Q21.29 15.58 21.82 14.30L21.82 14.30Q22.25 13.30 22.25 11.86ZM25.37 11.14L25.37 11.14Q25.37 15.58 23.69 17.09L23.69 17.09Q22.27 18.38 19.58 18.38L19.58 18.38Q16.15 18.38 14.95 16.37L14.95 16.37Q13.82 14.52 13.82 11.14L13.82 11.14Q13.82 7.97 14.95 6.17L14.95 6.17Q16.20 4.15 19.50 4.15Q22.80 4.15 24.08 5.92Q25.37 7.68 25.37 11.14ZM30.86 0L30.86 18.05L27.74 18.07L27.74 0L30.86 0ZM41.64 11.86L41.64 11.86L41.64 10.61Q41.64 8.83 41.12 7.90Q40.61 6.96 38.98 6.96L38.98 6.96Q36.34 6.96 36.34 10.51L36.34 10.51L36.34 11.76Q36.34 15.58 38.98 15.58L38.98 15.58Q40.68 15.58 41.21 14.30L41.21 14.30Q41.64 13.30 41.64 11.86ZM44.76 11.14L44.76 11.14Q44.76 15.58 43.08 17.09L43.08 17.09Q41.66 18.38 38.98 18.38L38.98 18.38Q35.54 18.38 34.34 16.37L34.34 16.37Q33.22 14.52 33.22 11.14L33.22 11.14Q33.22 7.97 34.34 6.17L34.34 6.17Q35.59 4.15 38.89 4.15Q42.19 4.15 43.48 5.92Q44.76 7.68 44.76 11.14ZM63.05 0.96L66.38 0.96L66.38 16.32Q66.38 17.11 65.90 17.68Q65.42 18.24 64.78 18.24L64.78 18.24Q63.12 18.24 62.06 16.32L62.06 16.32L56.16 7.08L56.16 18.05L52.82 18.05L52.82 0.96L56.04 0.96L63.05 12.14L63.05 0.96ZM77.02 11.86L77.02 11.86L77.02 10.61Q77.02 8.83 76.50 7.90Q75.98 6.96 74.35 6.96L74.35 6.96Q71.71 6.96 71.71 10.51L71.71 10.51L71.71 11.76Q71.71 15.58 74.35 15.58L74.35 15.58Q76.06 15.58 76.58 14.30L76.58 14.30Q77.02 13.30 77.02 11.86ZM80.14 11.14L80.14 11.14Q80.14 15.58 78.46 17.09L78.46 17.09Q77.04 18.38 74.35 18.38L74.35 18.38Q70.92 18.38 69.72 16.37L69.72 16.37Q68.59 14.52 68.59 11.14L68.59 11.14Q68.59 7.97 69.72 6.17L69.72 6.17Q70.97 4.15 74.27 4.15Q77.57 4.15 78.85 5.92Q80.14 7.68 80.14 11.14ZM89.90 4.39L89.90 4.39L89.04 7.46Q88.68 7.32 88.22 7.32L88.22 7.32Q87.02 7.32 85.27 8.35L85.27 8.35L85.27 18.05L82.15 18.05L82.15 4.34L84.48 4.34L85.20 5.54L88.51 4.18Q88.75 4.15 89.16 4.15Q89.57 4.15 89.90 4.39ZM101.95 0L101.95 18.05L99.86 18.05L98.90 16.39L95.57 18.19Q92.78 18.19 91.82 16.18L91.82 16.18Q91.34 15.19 91.16 14.05Q90.98 12.91 90.98 11.68Q90.98 10.44 91.01 9.85Q91.03 9.26 91.13 8.48Q91.22 7.70 91.40 7.18Q91.58 6.65 91.92 6.08Q92.26 5.52 92.74 5.18L92.74 5.18Q93.82 4.44 95.54 4.44L95.54 4.44L98.83 4.44L98.83 0L101.95 0ZM96.46 14.90L98.83 13.68L98.83 7.25L96.46 7.25Q95.14 7.25 94.62 8.26Q94.10 9.26 94.10 11.27Q94.10 13.27 94.60 14.09Q95.09 14.90 96.46 14.90L96.46 14.90Z" transform="translate(51, 5.476)"></path></svg>