<?xml version="1.0" standalone="no"?>
<svg xmlns="http://www.w3.org/2000/svg" viewBox="0 0 53.392 61.652" width="53.392" height="61.652"><polygon fill="#000000" points="53.392,15.413 53.392,46.239000000000004 26.696,61.652 0,46.239000000000004 0,15.413 26.696,0"></polygon><path fill="white" fill-rule="nonzero" d="M10.79 1.48Q12.26 2.95 12.26 5.81Q12.26 8.66 10.79 10.14Q9.31 11.62 6.62 11.62L6.62 11.62L3.34 11.62L3.34 17.09L0 17.09L0 0L6.62 0Q9.31 0 10.79 1.48ZM8.93 5.81L8.93 5.81Q8.93 2.98 6.46 2.98L6.46 2.98L3.34 2.98L3.34 8.62L6.46 8.62Q7.66 8.62 8.29 7.97Q8.93 7.32 8.93 5.81ZM25.06 0L28.39 0L28.39 15.36Q28.39 16.15 27.91 16.72Q27.43 17.28 26.78 17.28L26.78 17.28Q25.13 17.28 24.07 15.36L24.07 15.36L18.17 6.12L18.17 17.09L14.83 17.09L14.83 0L18.05 0L25.06 11.18L25.06 0Z" transform="translate(12.5, 22.186)"></path></svg>